<svg xmlns="http://www.w3.org/2000/svg" viewBox="0 0 668 179"><defs><style>.cls-1{fill:#fff;}</style></defs><g id="Capa_1" data-name="Capa 1"><path class="cls-1" d="M115,102.66a3.39,3.39,0,0,0-2.16,1.68C100,125.94,80,143.7,60.41,143.7c-5.64,0-7.92-3.48-7.92-7.08,0-13.8,33.12-27.12,58.07-35.16a3.57,3.57,0,0,0,2.16-1.8c7-12.84,11.16-26.64,11.16-38.28,0-19.44-11.28-29.16-29-29.16-26,0-47.75,23.4-47.75,39.24a15.26,15.26,0,0,0,4.32,10.68,1,1,0,0,1,.36.72,1.29,1.29,0,0,1-1.2,1.2c-1.2,0-5.76-5.4-5.76-12.72,0-18.12,23.88-41.52,50.15-41.52,19.08,0,31.2,11,31.2,31.8,0,11.28-3.72,24.12-9.84,36.24a.72.72,0,0,0-.12.48,1.06,1.06,0,0,0,1.08,1h.24c11.64-3.48,20.28-5.52,20.52-5.52a1.1,1.1,0,0,1,1.08,1.2C139.12,96.66,138.28,95.34,115,102.66Zm-6.24,3.84a.72.72,0,0,0,.12-.48,1.15,1.15,0,0,0-1-1.08c-.12,0-.24.12-.36.12-17.15,5.64-52.67,18.72-52.67,31.44,0,3,1.56,4.8,5,4.8C78.29,141.3,96.41,125.82,108.76,106.5Zm-38.63,4.08a1.31,1.31,0,0,1-1.32-1.2c0-.24,13-57,19.2-57a1.74,1.74,0,0,1,1.44,1,.78.78,0,0,1,.24.6A1.18,1.18,0,0,1,88.49,55H88c-.12,0-.12.12-.24.24-4.92,6.6-15,46.68-16.68,54.48A.91.91,0,0,1,70.13,110.58Z"/><path class="cls-1" d="M141.41,111.06c-5.4,0-8.28-3.48-8.28-7.8,0-6.72,6.72-12.6,13.56-12.6,2.28,0,3.24,1.2,3.24,2.16,0,2.64-6,7.68-13.32,8.28-.48.12-1,.48-1,1a5.16,5.16,0,0,0-.24,1.44c0,3.48,2.64,5.16,6.12,5.16,9.36,0,26.16-14.88,26.88-14.88a1.31,1.31,0,0,1,1.32,1.2C169.73,96.06,151.13,111.06,141.41,111.06Zm5.64-17.4a.52.52,0,0,0-.48-.48c-3.6.24-7,1.32-9.36,5-.12.12-.12.12-.12.24s.24.24.36.24a16.7,16.7,0,0,0,9.48-4.8A.37.37,0,0,0,147.05,93.66Z"/><path class="cls-1" d="M211.72,95.94a130.43,130.43,0,0,0-17.16,13.2,5,5,0,0,0-1.32,2.16c-2.4,8.64-10.31,29.28-17.51,29.28-1.8,0-2.76-1.56-2.76-3.24,0-4.08,6.24-16.32,17.51-27.6a5.44,5.44,0,0,0,1.32-2.28,47.34,47.34,0,0,0,1-8c0-3.84-.84-8-4.68-8-8,0-20.63,20.76-24.23,28.92a.62.62,0,0,1-.24.48.8.8,0,0,1-.84.48,1.31,1.31,0,0,1-1.32-1.2v-.24A218.15,218.15,0,0,1,199,32.46a1.22,1.22,0,0,1,2.16.48,1.52,1.52,0,0,1-.12.72,188.71,188.71,0,0,0-11.4,17.4,213.49,213.49,0,0,0-23.51,58.2v.12a.32.32,0,0,0,.36.36.48.48,0,0,0,.48-.24c4.56-7.68,13.68-20.4,21.11-20.4,3.6,0,7.08,2.52,7.08,10.44a32.53,32.53,0,0,1-.48,4.8.69.69,0,0,0,.72.72.44.44,0,0,0,.36-.12,143.1,143.1,0,0,1,14.76-11,2,2,0,0,1,.6-.24,1.31,1.31,0,0,1,1.2,1.32A1.22,1.22,0,0,1,211.72,95.94Zm-22.44,20.28V116a.67.67,0,0,0-.6-.72.64.64,0,0,0-.48.24c-8.27,9.36-12.95,19.2-12.95,22,0,.48.12.72.48.72C179,138.18,185.32,127.86,189.28,116.22Z"/><path class="cls-1" d="M238.84,95.7c-5.28,4.92-16.56,13.56-23.76,13.56-4.68,0-6.72-3-6.72-6.84s2-8.64,5-12.12a1,1,0,0,1,.72-.36,1.29,1.29,0,0,1,1.2,1.2A1.09,1.09,0,0,1,215,92a17.65,17.65,0,0,0-4.2,10.32c0,2.64,1.2,4.56,4.2,4.56,6.6,0,17.28-8.28,22.2-12.72a1.19,1.19,0,0,1,2,.84A1,1,0,0,1,238.84,95.7Zm-22.8-13c1.08-1.32,2.16-2.76,3.12-4.08a1.66,1.66,0,0,1,1.08-.6,1.08,1.08,0,0,1,.6.12,1.43,1.43,0,0,1,.6,1.08c0,.24-.12.36-.24.6-1.08,1.32-2,2.76-3.12,4.08a1.43,1.43,0,0,1-1.08.6,1.08,1.08,0,0,1-.6-.12,1.43,1.43,0,0,1-.6-1.08C215.8,83.1,215.92,83,216,82.74Z"/><path class="cls-1" d="M352.24,95c0,1.2-46.68,45.6-69.12,45.6-9.36,0-15.36-5.28-15.36-16,0-30.48,45.48-94.92,73.08-94.92,4.08,0,6.6,1.68,6.6,5.76,0,13.8-36.24,54.6-48.48,66.36a1.19,1.19,0,0,1-2-.84c0-.12,48.12-49.92,48.12-65.76,0-2.52-1.56-3.24-4.2-3.24-26,0-70.8,63.36-70.8,92.4,0,9.72,4.8,13.92,13.08,13.92,22,0,67.8-44.52,67.92-44.52A1.2,1.2,0,0,1,352.24,95Z"/><path class="cls-1" d="M351.64,107.34c-3,0-4.32-2.28-4.32-5.16,0-3.72,3.24-9.12,4.32-9.12a1.31,1.31,0,0,1,1.2,1.32,1.71,1.71,0,0,1-.24.72,12.72,12.72,0,0,0-2.88,7.44c0,1.32.48,2.52,1.92,2.52,4.08,0,9.36-7.2,9.36-11.64a2.78,2.78,0,0,0-2.64-3.12c-1.44,0-1.44,1.08-2.28,1.08a1.29,1.29,0,0,1-1.2-1.2c0-1,1.68-2.16,3.48-2.16a5.05,5.05,0,0,1,5,5.4C363.4,98.7,357.64,107.34,351.64,107.34Z"/><path class="cls-1" d="M382.36,97.5a2.52,2.52,0,0,0-.48,1.32,68.19,68.19,0,0,0-.36,7.08,82.3,82.3,0,0,0,.48,8.88,1,1,0,0,1-1.08,1,1.1,1.1,0,0,1-1.2-1.08,72.14,72.14,0,0,1-.48-8.64c0-1.68,0-3.24.12-4.8a.32.32,0,0,0-.36-.36.37.37,0,0,0-.24.12c-2.52,2-5.76,4.08-8.88,4.08-2.28,0-3.84-1.56-3.84-4.2,0-4.92,5-11.28,12.36-11.28h1.44c.48,0,.84-.48,1-1C384,71.22,391.6,57.3,398.08,57.3c2.4,0,4.08,1.56,4.08,4.92C402.16,70.74,391.36,88.5,382.36,97.5Zm-3.24,0a1.72,1.72,0,0,0,.6-1.32,30.15,30.15,0,0,1,.48-3.24.93.93,0,0,0-.84-1,3.32,3.32,0,0,0-1.08-.12c-5.28,0-9.84,4.56-9.84,9,0,1.56.6,1.92,1.32,1.92C372.76,102.78,376.6,99.78,379.12,97.5ZM398,59.7c-7.08,0-13.68,21.6-15.48,33.24a.52.52,0,0,0,.48.48c.12,0,.12,0,.24-.12,8.4-9.6,16.68-24.36,16.68-31.08C399.88,60.18,399.28,59.7,398,59.7Z"/><path class="cls-1" d="M416,101.34a10.34,10.34,0,0,1-9.6-6.6,134.86,134.86,0,0,0-15,21.48,1.22,1.22,0,0,1-2.28-.6c0-.48,8-28.92,10.92-28.92A1.42,1.42,0,0,1,401.32,88a123.57,123.57,0,0,0-7.2,18.48.26.26,0,0,0,.24.24.12.12,0,0,0,.12-.12c1.08-1.56,10.44-15.24,12.48-15.24a1.29,1.29,0,0,1,1.32,1.2c.36,3.72,4.2,6.48,7.8,6.48,3.12,0,7.56-2.88,9.72-4.92a1.19,1.19,0,0,1,2,.84C427.84,96.06,421.24,101.34,416,101.34Z"/><path class="cls-1" d="M454.24,95.7c-5.28,4.92-16.56,13.56-23.76,13.56-4.68,0-6.72-3-6.72-6.84s2-8.64,5-12.12a1,1,0,0,1,.72-.36,1.29,1.29,0,0,1,1.2,1.2,1.09,1.09,0,0,1-.36.84,17.65,17.65,0,0,0-4.2,10.32c0,2.64,1.2,4.56,4.2,4.56,6.6,0,17.28-8.28,22.2-12.72a1.19,1.19,0,0,1,2,.84A1,1,0,0,1,454.24,95.7Zm-22.8-13c1.08-1.32,2.16-2.76,3.12-4.08a1.66,1.66,0,0,1,1.08-.6,1.08,1.08,0,0,1,.6.12,1.43,1.43,0,0,1,.6,1.08c0,.24-.12.36-.24.6-1.08,1.32-2,2.76-3.12,4.08a1.43,1.43,0,0,1-1.08.6,1.08,1.08,0,0,1-.6-.12,1.43,1.43,0,0,1-.6-1.08C431.2,83.1,431.32,83,431.44,82.74Z"/><path class="cls-1" d="M476.44,104.22c-4.08,0-7-3.36-7-8a9.08,9.08,0,0,1,.12-1.8.26.26,0,0,0-.24-.24h-.12c-3.84,3.48-11.28,10.08-16,10.08-2,0-3.84-1.08-3.84-3.48,0-5.28,7.32-12.48,17.28-12.48a19.28,19.28,0,0,1,4.68.48,1.48,1.48,0,0,1,1.2-.6,1.3,1.3,0,0,1,.84.36,1.09,1.09,0,0,1,.36.84,2,2,0,0,1-.24.6,13.94,13.94,0,0,0-1.8,6.24c0,3.12,1.56,5.76,4.8,5.76,6.36,0,20.64-8.16,20.76-8.16A1.19,1.19,0,0,1,498.4,95C498.4,96.3,483.16,104.22,476.44,104.22Zm-7.56-13c.12,0,.12-.12.12-.24a.38.38,0,0,0-.36-.36,9.7,9.7,0,0,0-1.92-.12c-9,0-15,6.72-15,10,0,1.2.48,1.44,1.44,1.44C456.64,101.94,464.44,95.46,468.88,91.26Z"/><path class="cls-1" d="M532.84,95c0,1.32-13.32,11.16-18.36,11.16-2.52,0-3.72-1.8-3.72-4.32a51.31,51.31,0,0,1,.6-5.16c-3.36,1.56-13.8,11.52-16.44,14.16a1,1,0,0,1-.72.36c-1,0-1.8-.36-1.8-1.32,0-3,5.76-23.16,8-23.16a1.31,1.31,0,0,1,1.2,1.32,91.78,91.78,0,0,0-6.24,18.36c0,.12.12.36.24.36s.12,0,.24-.12c3.12-3,13.2-12.6,16-12.6,1.44,0,1.8,1.32,1.8,2.64s-.48,3.24-.48,4.92c0,1.2.12,2.16,1.32,2.16,5,0,16.32-10,17.16-10A1.29,1.29,0,0,1,532.84,95Z"/><path class="cls-1" d="M559.6,96.06a70.38,70.38,0,0,0-19.32,12.24,1.36,1.36,0,0,0-.36,1,.72.72,0,0,0,.12.48,17.91,17.91,0,0,1,1.2,6.12c0,8.88-6.6,14.64-11,14.64a4.33,4.33,0,0,1-4.32-4.68c0-5.28,5.88-12.36,10-16.56a1.09,1.09,0,0,0,.36-.84,1.71,1.71,0,0,0-.24-.72c-2.28-3-5.4-5.28-5.4-9.6,0-5.4,4.56-8.64,5.88-8.64a1.41,1.41,0,0,1,1.2,1.32c0,.36-.12.6-.6.84a7.13,7.13,0,0,0-4.2,6.48c0,3.48,2.76,5.4,5,8.16.12.24.36.24.6.24s.36,0,.48-.12c9.6-8.52,19.8-12.72,20.4-12.72a1.1,1.1,0,0,1,1,1.2A1.34,1.34,0,0,1,559.6,96.06ZM538.24,111.9a.61.61,0,0,0-.6-.48.88.88,0,0,0-.72.24c-3.24,3.36-8.76,9.72-8.76,14a2.28,2.28,0,0,0,2.28,2.52c3.36,0,8.4-5.4,8.4-12.24A11.61,11.61,0,0,0,538.24,111.9Z"/><path class="cls-1" d="M593.55,95a1,1,0,0,1-.36.72c-8.88,8.28-19.92,15-32.28,15a2,2,0,0,1-.59-.24l-.12-.12c-2.76,4.68-5.28,9.48-7.8,14.28a1,1,0,0,1-1,.84,1.34,1.34,0,0,1-1.33-1.32c0-5.88,9.37-33.6,18.13-52a218.78,218.78,0,0,1,17.27-30.12,1.47,1.47,0,0,1,1.08-.48,1.18,1.18,0,0,1,1.2,1.08c0,.24,0,.48-.24.6a182.28,182.28,0,0,0-9.84,15.84,251.41,251.41,0,0,0-15.35,32.64,211.38,211.38,0,0,0-7.56,22.8.12.12,0,0,0,.12.12c.11,0,.11,0,.11-.12,3.49-6.24,13.56-24.6,18.6-24.6a2.09,2.09,0,0,1,2,2.28c0,3.12-4.08,9.6-10.31,15.24a.12.12,0,0,0-.12.12c0,.24.12.36.23.36h.12c10-1.44,18.6-7,25.92-13.8a1,1,0,0,1,.72-.36A1.31,1.31,0,0,1,593.55,95Zm-20.28-2.52c-2.52.72-8.4,10-10.67,13.68v.12c0,.12.11.12.23.12H563c5.52-4.8,10.32-11.52,10.32-13.8Z"/><path class="cls-1" d="M633,98.1a95.06,95.06,0,0,0-15.24,9.48,4.26,4.26,0,0,0-1.32,1.92c-3,12.12-10.56,37.8-22,37.8-3.6,0-5.15-3.24-5.15-6.84,0-8.76,12.83-23.28,24.35-32.64a3.3,3.3,0,0,0,1.2-1.92q2-8.1,3.24-16.2a.51.51,0,0,0-.84-.36c-5,6.72-12.12,14.16-20.28,14.16-3.71,0-5.75-2.4-5.75-5.76,0-5.88,5-11.28,6.47-11.28a1.31,1.31,0,0,1,1.32,1.2,1.3,1.3,0,0,1-.36.84c-2.64,1.92-5,5.52-5,9,0,2.28,1,3.6,3.49,3.6,8.39,0,17.75-11.16,21.83-18.36a1.22,1.22,0,0,1,1-.6.44.44,0,0,1,.36.12,1,1,0,0,1,1,1v.12c0,.12,0,.12-.12.24A166.82,166.82,0,0,1,618,103v.12a.64.64,0,0,0,.72.72.44.44,0,0,0,.36-.12c9.12-6.48,17.52-10.08,18.12-10.08a1.09,1.09,0,0,1,1,1.2C638.19,96.06,637.47,95.82,633,98.1Zm-19.8,14.76v-.12a.67.67,0,0,0-.6-.72.62.62,0,0,0-.48.24c-7.56,6.6-20.52,20.16-20.52,28.32,0,2,.73,4.44,3,4.44C603.39,145,610.35,123.18,613.23,112.86Z"/></g></svg>